# xmcd CD database file generated by OrangeCD 6.3
#
# Track frame offsets:
#	150
#	14411
#	25786
#	41721
#	54615
#	69756
#	81820
#	95501
#	111057
#	126237
#	140366
#	153603
#
# Disc length: 2295 seconds
#
# Revision: 3
# Processed by: cddbd v1.5.2PL0 Copyright (c) Steve Scherf et al.
# Submitted via: OrangeCD 6.3
#
DISCID=9a08f50c
DTITLE=Bazooka Jones - Bazooka Jones
DYEAR=2005
DGENRE=
TTITLE0=Pants Off
TTITLE1=Your Baby (She Wants Me)
TTITLE2=Love Up
TTITLE3=Swinging On The Moon
TTITLE4=Goodbye Mr. Niceguy
TTITLE5=These Boots Are Made For Walkin'
TTITLE6=Bazooka Ride
TTITLE7=Girl On Fire
TTITLE8=Life Of The Party
TTITLE9=Perfect One
TTITLE10=Drive-In Boy
TTITLE11=Babyfoolaround
EXTD=
EXTT0=
EXTT1=
EXTT2=
EXTT3=
EXTT4=
EXTT5=
EXTT6=
EXTT7=
EXTT8=
EXTT9=
EXTT10=
EXTT11=
PLAYORDER=
